<svg xmlns="http://www.w3.org/2000/svg" width="109.209" height="22.839" viewBox="0 0 109.209 22.839"><defs><style>.a{fill:#fff;}</style></defs><g transform="translate(54.604 11.419)"><path class="a" d="M23.551,22.839h.156L31.5,3.45C32.255,1.58,32.945.668,33.635.245V.067H28.961v.2c.979.534,1.2,2,.534,3.673L24.709,15.894,18.231,0h-.156L11.241,15.849,6.344,3.384C5.765,1.892,5.921.8,6.834.245V.067H0v.2c.735.356,1.269,1.158,1.937,2.76L9.973,22.839h.156L16.9,6.812ZM73.993,11.731V5.454h6.589c3.005,0,4.14.467,5.231,2l.178-.067-.378-3.473H69.14v.156a2.846,2.846,0,0,1,1.269,2.76V19.3a2.826,2.826,0,0,1-1.269,2.76v.2H86.459l.623-3.784-.156-.067c-1.113,1.491-2.426,2.248-5.409,2.248H73.993V13.223h5.031c2.159,0,3.228.356,3.807,1.269h.223V10.507H82.83c-.579.913-1.647,1.269-3.807,1.269Zm22.06,10.284v.2H102.4v-.2c-1.046-.6-1.358-1.558-1.358-3.072v-4.3L106.6,6.7a7.6,7.6,0,0,1,2.6-2.649V3.9h-4.942v.156c.89.512,1,1.736.067,3.094l-4.074,5.9-4.5-6.611c-.69-1-.579-1.937.245-2.382V3.9H89.085v.156a4.872,4.872,0,0,1,2.2,2.092l6.144,8.771v4.029c0,1.514-.356,2.471-1.4,3.072m-30.541.2.89-3.873-.178-.067c-1.068,1.67-2.716,2.382-5.164,2.382H53.892V7.123c0-1.558.378-2.426,1.447-3.072V3.9h-6.3v.156a2.846,2.846,0,0,1,1.269,2.76V19.277a2.826,2.826,0,0,1-1.269,2.76v.2ZM37.62,19.122c0,1.425-.312,2.337-1.336,2.916v.2h6.255v-.2c-1.024-.579-1.336-1.491-1.336-2.916V6.967a2.957,2.957,0,0,1,1.336-2.916V3.9H36.306v.156a2.977,2.977,0,0,1,1.336,2.916Z" transform="translate(-54.604 -11.419)"/></g></svg>